{
  "accessors": [
    {
      "bufferView": 2,
      "componentType": 5126,
      "count": 65532,
      "max": [
        21.11945343017578,
        3.099999958067201e-05,
        41.701324462890625
      ],
      "min": [
        -16.745925903320313,
        -12.19720458984375,
        -41.701263427734375
      ],
      "type": "VEC3"
    },
    {
      "bufferView": 2,
      "byteOffset": 786384,
      "componentType": 5126,
      "count": 65532,
      "max": [
        0.9999908208847046,
        0.9998434782028198,
        0.999965250492096
      ],
      "min": [
        -0.9999976754188538,
        -1.0,
        -0.9997462034225464
      ],
      "type": "VEC3"
    },
    {
      "bufferView": 1,
      "componentType": 5126,
      "count": 65532,
      "max": [
        0.9999769926071167,
        0.9989489912986755
      ],
      "min": [
        0.0,
        0.0
      ],
      "type": "VEC2"
    },
    {
      "bufferView": 0,
      "componentType": 5125,
      "count": 332451,
      "type": "SCALAR"
    },
    {
      "bufferView": 2,
      "byteOffset": 1572768,
      "componentType": 5126,
      "count": 65533,
      "max": [
        20.998435974121094,
        -0.0005339999916031957,
        41.688568115234375
      ],
      "min": [
        -21.11944580078125,
        -12.303558349609375,
        -41.664825439453125
      ],
      "type": "VEC3"
    },
    {
      "bufferView": 2,
      "byteOffset": 2359164,
      "componentType": 5126,
      "count": 65533,
      "max": [
        0.9999876022338867,
        0.9999422430992126,
        0.9999557733535767
      ],
      "min": [
        -0.9999992251396179,
        -1.0,
        -0.9999622702598572
      ],
      "type": "VEC3"
    },
    {
      "bufferView": 1,
      "byteOffset": 524256,
      "componentType": 5126,
      "count": 65533,
      "max": [
        0.9999740123748779,
        0.998881995677948
      ],
      "min": [
        3.999999989900971e-06,
        0.00011800000356743112
      ],
      "type": "VEC2"
    },
    {
      "bufferView": 0,
      "byteOffset": 1329804,
      "componentType": 5125,
      "count": 317808,
      "type": "SCALAR"
    },
    {
      "bufferView": 2,
      "byteOffset": 3145560,
      "componentType": 5126,
      "count": 3273,
      "max": [
        14.167388916015625,
        -6.753554821014404,
        22.489837646484375
      ],
      "min": [
        -10.870101928710938,
        -11.402435302734375,
        -4.41326904296875
      ],
      "type": "VEC3"
    },
    {
      "bufferView": 2,
      "byteOffset": 3184836,
      "componentType": 5126,
      "count": 3273,
      "max": [
        0.9981043338775635,
        0.9958016276359558,
        0.999518096446991
      ],
      "min": [
        -0.9983154535293579,
        -0.9999391436576843,
        -0.9942789077758789
      ],
      "type": "VEC3"
    },
    {
      "bufferView": 1,
      "byteOffset": 1048520,
      "componentType": 5126,
      "count": 3273,
      "max": [
        0.9999210238456726,
        0.9988920092582703
      ],
      "min": [
        0.0012209999840706587,
        0.010456000454723835
      ],
      "type": "VEC2"
    },
    {
      "bufferView": 0,
      "byteOffset": 2601036,
      "componentType": 5125,
      "count": 10659,
      "type": "SCALAR"
    }
  ],
  "asset": {
    "extras": {
      "author": "Alan2738 (https://sketchfab.com/alanroslon)",
      "license": "CC-BY-4.0 (http://creativecommons.org/licenses/by/4.0/)",
      "source": "https://sketchfab.com/3d-models/gpu-rx-580-6b3db05319be48028321ac94c4834bcb",
      "title": "GPU RX 580"
    },
    "generator": "Sketchfab-14.25.0",
    "version": "2.0"
  },
  "bufferViews": [
    {
      "buffer": 0,
      "byteLength": 2643672,
      "name": "floatBufferViews",
      "target": 34963
    },
    {
      "buffer": 0,
      "byteLength": 1074704,
      "byteOffset": 2643672,
      "byteStride": 8,
      "name": "floatBufferViews",
      "target": 34962
    },
    {
      "buffer": 0,
      "byteLength": 3224112,
      "byteOffset": 3718376,
      "byteStride": 12,
      "name": "floatBufferViews",
      "target": 34962
    }
  ],
  "buffers": [
    {
      "byteLength": 6942488,
      "uri": "scene.bin"
    }
  ],
  "images": [
    {
      "uri": "textures/Mat_0_baseColor.jpeg"
    }
  ],
  "materials": [
    {
      "doubleSided": true,
      "name": "Mat_0",
      "pbrMetallicRoughness": {
        "baseColorTexture": {
          "index": 0
        },
        "metallicFactor": 0.0
      }
    }
  ],
  "meshes": [
    {
      "name": "Object_0",
      "primitives": [
        {
          "attributes": {
            "NORMAL": 1,
            "POSITION": 0,
            "TEXCOORD_0": 2
          },
          "indices": 3,
          "material": 0,
          "mode": 4
        }
      ]
    },
    {
      "name": "Object_1",
      "primitives": [
        {
          "attributes": {
            "NORMAL": 5,
            "POSITION": 4,
            "TEXCOORD_0": 6
          },
          "indices": 7,
          "material": 0,
          "mode": 4
        }
      ]
    },
    {
      "name": "Object_2",
      "primitives": [
        {
          "attributes": {
            "NORMAL": 9,
            "POSITION": 8,
            "TEXCOORD_0": 10
          },
          "indices": 11,
          "material": 0,
          "mode": 4
        }
      ]
    }
  ],
  "nodes": [
    {
      "children": [
        1
      ],
      "matrix": [
        2.220446049250313e-16,
        1.0,
        6.123234262925839e-17,
        0.0,
        2.220446049250313e-16,
        6.123234262925839e-17,
        -1.0,
        0.0,
        -1.0,
        2.2204460492503136e-16,
        -2.2204460492503126e-16,
        0.0,
        0.0,
        0.0,
        0.0,
        1.0
      ],
      "name": "Sketchfab_model"
    },
    {
      "children": [
        2,
        3,
        4
      ],
      "name": "GPU RX 580.obj.cleaner.materialmerger.gles"
    },
    {
      "mesh": 0,
      "name": "Object_2"
    },
    {
      "mesh": 1,
      "name": "Object_3"
    },
    {
      "mesh": 2,
      "name": "Object_4"
    }
  ],
  "samplers": [
    {
      "magFilter": 9729,
      "minFilter": 9987,
      "wrapS": 10497,
      "wrapT": 10497
    }
  ],
  "scene": 0,
  "scenes": [
    {
      "name": "Sketchfab_Scene",
      "nodes": [
        0
      ]
    }
  ],
  "textures": [
    {
      "sampler": 0,
      "source": 0
    }
  ]
}
