{
  "accessors": [
    {
      "bufferView": 2,
      "componentType": 5126,
      "count": 10114,
      "max": [
        0.019999999552965164,
        0.019999999552965164,
        0.0017519999528303742
      ],
      "min": [
        -0.019999999552965164,
        -0.019999999552965164,
        0.0011230000527575612
      ],
      "type": "VEC3"
    },
    {
      "bufferView": 2,
      "byteOffset": 121368,
      "componentType": 5126,
      "count": 10114,
      "max": [
        1.0,
        1.0,
        1.0
      ],
      "min": [
        -1.0,
        -1.0,
        -1.0
      ],
      "type": "VEC3"
    },
    {
      "bufferView": 1,
      "componentType": 5126,
      "count": 10114,
      "max": [
        0.9998430013656616,
        0.9998400211334229
      ],
      "min": [
        0.00016399999731220305,
        0.0001610000035725534
      ],
      "type": "VEC2"
    },
    {
      "bufferView": 0,
      "componentType": 5125,
      "count": 14676,
      "type": "SCALAR"
    },
    {
      "bufferView": 2,
      "byteOffset": 242736,
      "componentType": 5126,
      "count": 34,
      "max": [
        0.019999999552965164,
        0.019999999552965164,
        0.00010099999781232327
      ],
      "min": [
        -0.019999999552965164,
        -0.019999999552965164,
        0.00010099999781232327
      ],
      "type": "VEC3"
    },
    {
      "bufferView": 2,
      "byteOffset": 243144,
      "componentType": 5126,
      "count": 34,
      "max": [
        -0.0,
        0.0,
        -1.0
      ],
      "min": [
        -0.0,
        0.0,
        -1.0
      ],
      "type": "VEC3"
    },
    {
      "bufferView": 1,
      "byteOffset": 80912,
      "componentType": 5126,
      "count": 34,
      "max": [
        0.9998390078544617,
        0.9998419880867004
      ],
      "min": [
        0.00015700000221841037,
        0.00015900000289548188
      ],
      "type": "VEC2"
    },
    {
      "bufferView": 0,
      "byteOffset": 58704,
      "componentType": 5125,
      "count": 96,
      "type": "SCALAR"
    },
    {
      "bufferView": 2,
      "byteOffset": 243552,
      "componentType": 5126,
      "count": 76,
      "max": [
        0.019999999552965164,
        0.019999999552965164,
        0.0011350000277161598
      ],
      "min": [
        -0.019999999552965164,
        -0.019999999552965164,
        0.00010099999781232327
      ],
      "type": "VEC3"
    },
    {
      "bufferView": 2,
      "byteOffset": 244464,
      "componentType": 5126,
      "count": 76,
      "max": [
        0.9914751052856445,
        1.0,
        -0.0
      ],
      "min": [
        -0.9914751052856445,
        -1.0,
        -0.0
      ],
      "type": "VEC3"
    },
    {
      "bufferView": 1,
      "byteOffset": 81184,
      "componentType": 5126,
      "count": 76,
      "max": [
        0.9468380212783813,
        0.0742190033197403
      ],
      "min": [
        0.0,
        0.0
      ],
      "type": "VEC2"
    },
    {
      "bufferView": 0,
      "byteOffset": 59088,
      "componentType": 5125,
      "count": 204,
      "type": "SCALAR"
    },
    {
      "bufferView": 2,
      "byteOffset": 245376,
      "componentType": 5126,
      "count": 704,
      "max": [
        0.01875000074505806,
        0.01875000074505806,
        0.005834000185132027
      ],
      "min": [
        -0.01875000074505806,
        -0.01875000074505806,
        0.0008839999791234732
      ],
      "type": "VEC3"
    },
    {
      "bufferView": 2,
      "byteOffset": 253824,
      "componentType": 5126,
      "count": 704,
      "max": [
        1.0,
        1.0,
        1.0
      ],
      "min": [
        -1.0,
        -1.0,
        -0.0
      ],
      "type": "VEC3"
    },
    {
      "bufferView": 1,
      "byteOffset": 81792,
      "componentType": 5126,
      "count": 704,
      "max": [
        0.9534500241279602,
        0.966035008430481
      ],
      "min": [
        0.0455549992620945,
        0.058139998465776443
      ],
      "type": "VEC2"
    },
    {
      "bufferView": 0,
      "byteOffset": 59904,
      "componentType": 5125,
      "count": 2202,
      "type": "SCALAR"
    },
    {
      "bufferView": 2,
      "byteOffset": 262272,
      "componentType": 5126,
      "count": 4,
      "max": [
        0.010631999932229519,
        0.010631999932229519,
        0.005834000185132027
      ],
      "min": [
        -0.010631999932229519,
        -0.010631999932229519,
        0.005834000185132027
      ],
      "type": "VEC3"
    },
    {
      "bufferView": 2,
      "byteOffset": 262320,
      "componentType": 5126,
      "count": 4,
      "max": [
        -0.0,
        0.0,
        1.0
      ],
      "min": [
        -0.0,
        0.0,
        1.0
      ],
      "type": "VEC3"
    },
    {
      "bufferView": 1,
      "byteOffset": 87424,
      "componentType": 5126,
      "count": 4,
      "max": [
        0.9881659746170044,
        0.9963740110397339
      ],
      "min": [
        0.0033309999853372574,
        0.01153900008648634
      ],
      "type": "VEC2"
    },
    {
      "bufferView": 0,
      "byteOffset": 68712,
      "componentType": 5125,
      "count": 6,
      "type": "SCALAR"
    }
  ],
  "asset": {
    "extras": {
      "author": "arsdever (https://sketchfab.com/arsdever)",
      "license": "CC-BY-4.0 (http://creativecommons.org/licenses/by/4.0/)",
      "source": "https://sketchfab.com/3d-models/amd-ryzen-5-7600-cpu-chip-am5-socket-a05c2732e0b847c2967e2c9282abd5f9",
      "title": "AMD Ryzen 5 7600 CPU chip (AM5 socket)"
    },
    "generator": "Sketchfab-16.75.0",
    "version": "2.0"
  },
  "bufferViews": [
    {
      "buffer": 0,
      "byteLength": 68736,
      "name": "floatBufferViews",
      "target": 34963
    },
    {
      "buffer": 0,
      "byteLength": 87456,
      "byteOffset": 68736,
      "byteStride": 8,
      "name": "floatBufferViews",
      "target": 34962
    },
    {
      "buffer": 0,
      "byteLength": 262368,
      "byteOffset": 156192,
      "byteStride": 12,
      "name": "floatBufferViews",
      "target": 34962
    }
  ],
  "buffers": [
    {
      "byteLength": 418560,
      "uri": "scene.bin"
    }
  ],
  "images": [
    {
      "uri": "textures/CPUBoard_baseColor.png"
    },
    {
      "uri": "textures/CPUBoard_metallicRoughness.png"
    },
    {
      "uri": "textures/CPUBoardBottom_baseColor.png"
    },
    {
      "uri": "textures/CPUBoardBottom_metallicRoughness.png"
    },
    {
      "uri": "textures/CPUText_baseColor.png"
    },
    {
      "uri": "textures/CPUText_metallicRoughness.png"
    }
  ],
  "materials": [
    {
      "doubleSided": true,
      "name": "CPUBoard",
      "pbrMetallicRoughness": {
        "baseColorTexture": {
          "index": 0
        },
        "metallicRoughnessTexture": {
          "index": 1
        },
        "roughnessFactor": 0.3
      }
    },
    {
      "doubleSided": true,
      "name": "CPUBoardBottom",
      "pbrMetallicRoughness": {
        "baseColorTexture": {
          "index": 2
        },
        "metallicRoughnessTexture": {
          "index": 3
        },
        "roughnessFactor": 0.3
      }
    },
    {
      "doubleSided": true,
      "name": "CPUBoardSide",
      "pbrMetallicRoughness": {
        "baseColorFactor": [
          0.385801,
          0.257609,
          0.047834,
          1.0
        ],
        "metallicFactor": 0.0,
        "roughnessFactor": 0.7625077456770593
      }
    },
    {
      "doubleSided": true,
      "name": "CPUCase",
      "pbrMetallicRoughness": {
        "roughnessFactor": 0.7
      }
    },
    {
      "doubleSided": true,
      "name": "CPUText",
      "pbrMetallicRoughness": {
        "baseColorTexture": {
          "index": 4
        },
        "metallicRoughnessTexture": {
          "index": 5
        },
        "roughnessFactor": 0.7
      }
    }
  ],
  "meshes": [
    {
      "name": "Object_0",
      "primitives": [
        {
          "attributes": {
            "NORMAL": 1,
            "POSITION": 0,
            "TEXCOORD_0": 2
          },
          "indices": 3,
          "material": 0,
          "mode": 4
        }
      ]
    },
    {
      "name": "Object_1",
      "primitives": [
        {
          "attributes": {
            "NORMAL": 5,
            "POSITION": 4,
            "TEXCOORD_0": 6
          },
          "indices": 7,
          "material": 1,
          "mode": 4
        }
      ]
    },
    {
      "name": "Object_2",
      "primitives": [
        {
          "attributes": {
            "NORMAL": 9,
            "POSITION": 8,
            "TEXCOORD_0": 10
          },
          "indices": 11,
          "material": 2,
          "mode": 4
        }
      ]
    },
    {
      "name": "Object_3",
      "primitives": [
        {
          "attributes": {
            "NORMAL": 13,
            "POSITION": 12,
            "TEXCOORD_0": 14
          },
          "indices": 15,
          "material": 3,
          "mode": 4
        }
      ]
    },
    {
      "name": "Object_4",
      "primitives": [
        {
          "attributes": {
            "NORMAL": 17,
            "POSITION": 16,
            "TEXCOORD_0": 18
          },
          "indices": 19,
          "material": 4,
          "mode": 4
        }
      ]
    }
  ],
  "nodes": [
    {
      "children": [
        1
      ],
      "matrix": [
        1.0,
        0.0,
        0.0,
        0.0,
        0.0,
        2.220446049250313e-16,
        -1.0,
        0.0,
        0.0,
        1.0,
        2.220446049250313e-16,
        0.0,
        0.0,
        0.0,
        0.0,
        1.0
      ],
      "name": "Sketchfab_model"
    },
    {
      "children": [
        2,
        3,
        4,
        5,
        6
      ],
      "name": "Ryzen5.obj.cleaner.materialmerger.gles"
    },
    {
      "mesh": 0,
      "name": "Object_2"
    },
    {
      "mesh": 1,
      "name": "Object_3"
    },
    {
      "mesh": 2,
      "name": "Object_4"
    },
    {
      "mesh": 3,
      "name": "Object_5"
    },
    {
      "mesh": 4,
      "name": "Object_6"
    }
  ],
  "samplers": [
    {
      "magFilter": 9729,
      "minFilter": 9987,
      "wrapS": 10497,
      "wrapT": 10497
    }
  ],
  "scene": 0,
  "scenes": [
    {
      "name": "Sketchfab_Scene",
      "nodes": [
        0
      ]
    }
  ],
  "textures": [
    {
      "sampler": 0,
      "source": 0
    },
    {
      "sampler": 0,
      "source": 1
    },
    {
      "sampler": 0,
      "source": 2
    },
    {
      "sampler": 0,
      "source": 3
    },
    {
      "sampler": 0,
      "source": 4
    },
    {
      "sampler": 0,
      "source": 5
    }
  ]
}
